# xmcd
# Track frame offsets:
# 150
# 15162
# 31342
# 46375
# 63875
# 77832
# 89670
# 101255
# 115485
# 127155
# 145175
# 159822
#
# Disc length: 2355 seconds
# Revision: 0
# Processed by: cddbd v1.4PL0 Copyright (c) Steve Scherf et al.
# Submitted via: VisiTrax 2.9.5.180 - For more info visit www.synapsa.com
#
DISCID=9209310c
DTITLE=Kevin James - Generations
DYEAR=2000
DGENRE=
TTITLE0=Kevin James - Don't be affraid to touch me
TTITLE1=Kevin James - Fairy tale of love
TTITLE2=Kevin James - Another Jesse James
TTITLE3=Kevin James - Faded love
TTITLE4=Kevin James - He'll have to go
TTITLE5=Kevin James/Gayla Dawn - Late to breakfast
TTITLE6=Kevin James - She came to dance
TTITLE7=Kevin James/Lisa Fletcher - I got you babe
TTITLE8=Kevin James - Would love do
TTITLE9=Kevin James - Generation tex
TTITLE10=Kevin James/Kyla Enloe - I love you
TTITLE11=Kevin James - The serenity prayer
EXTD=
EXTT0=
EXTT1=
EXTT2=
EXTT3=
EXTT4=
EXTT5=
EXTT6=
EXTT7=
EXTT8=
EXTT9=
EXTT10=
EXTT11=
PLAYORDER=
